# xmcd
#
# Track frame offsets: 
#        150
#        20062
#        36912
#        54832
#        77997
#        96545
#        114827
#        130037
#        153430
#        170315
#        188512
#
# Disc length: 2782 seconds
#
# Revision: 4
# Processed by: cddbd v1.5.2PL0 Copyright (c) Steve Scherf et al.
# Submitted via: ExactAudioCopy v0.99pb5
#
DISCID=830adc0b
DTITLE=The Mellow Fellows - Street Party
DYEAR=1990
DGENRE=Blues
TTITLE0=I've Got To Find A Way
TTITLE1=Street Party
TTITLE2=I've Got A Feeling
TTITLE3=Feels Like Rain
TTITLE4=Driving Wheel
TTITLE5=We'll Be Friends
TTITLE6=Don't Turn Your Heater Down
TTITLE7=Since I Fell For You
TTITLE8=Last Night
TTITLE9=Me And My Woman
TTITLE10=Broad Daylight
EXTD=
EXTT0=
EXTT1=
EXTT2=
EXTT3=
EXTT4=
EXTT5=
EXTT6=
EXTT7=
EXTT8=
EXTT9=
EXTT10=
PLAYORDER=
